<svg width="16" height="16" viewBox="0 0 16 16" fill="none" xmlns="http://www.w3.org/2000/svg">
<path d="M8.00004 1C4.1429 1 1 4.14287 1 8.00001C1 11.8572 4.1429 15 8.00004 15C11.8572 15 15 11.8572 15 8.00001C15 4.14287 11.8572 1 8.00004 1ZM13.8572 7.42857H8.50001V2.07143C11.3572 2.35714 13.5714 4.57143 13.8572 7.42857ZM2.14284 7.92858C2.14284 4.85715 4.49999 2.35714 7.49999 2.07143V7.71428L3.5 11.7143C2.64286 10.7143 2.14284 9.35715 2.14284 7.92858ZM8.00004 13.8571C6.57147 13.8571 5.28572 13.3571 4.21429 12.5L8.21428 8.5H13.8572C13.5714 11.5 11.0715 13.8571 8.00004 13.8571Z" fill="#536574"/>
</svg>
