<svg width="16" height="16" viewBox="0 0 16 16" fill="none" xmlns="http://www.w3.org/2000/svg">
<path d="M11.1768 9.44802C10.9982 9.36345 10.1431 8.94059 9.98336 8.87481C9.82362 8.80903 9.71085 8.79024 9.58869 8.96878C9.46653 9.14732 9.13764 9.5326 9.03428 9.65476C8.93091 9.77692 8.83694 9.78631 8.6584 9.65476C8.14558 9.44896 7.67197 9.15653 7.25826 8.79024C6.88374 8.43763 6.56668 8.02862 6.31856 7.57803C6.2152 7.40889 6.31856 7.31492 6.39374 7.22095C6.46891 7.12698 6.56288 7.02362 6.65685 6.92025C6.72557 6.83086 6.78242 6.73294 6.826 6.62894C6.84931 6.58058 6.86141 6.52758 6.86141 6.47389C6.86141 6.42021 6.84931 6.36721 6.826 6.31885C6.826 6.23427 6.43133 5.37915 6.28097 5.03147C6.13062 4.68378 5.99907 4.73076 5.8957 4.73076H5.51982C5.34077 4.73775 5.17179 4.81547 5.04998 4.94689C4.85335 5.13452 4.69761 5.36075 4.5925 5.61138C4.4874 5.86202 4.4352 6.13166 4.43918 6.40342C4.48724 7.07058 4.73255 7.7084 5.14395 8.23582C5.89887 9.35728 6.93168 10.2638 8.14157 10.867C8.55503 11.0455 8.87453 11.1489 9.12824 11.2334C9.48452 11.3411 9.86111 11.3637 10.2277 11.2992C10.4712 11.2498 10.7019 11.1509 10.9056 11.0087C11.1092 10.8664 11.2815 10.6839 11.4117 10.4723C11.5201 10.211 11.5558 9.92528 11.5151 9.64536C11.4681 9.57958 11.3553 9.5326 11.1768 9.44802Z" fill="#536574"/>
<path d="M12.9341 3.04877C12.2842 2.39275 11.5096 1.87352 10.6558 1.52169C9.80207 1.16986 8.8865 0.992555 7.96313 1.00024C6.73992 1.00664 5.5398 1.33386 4.48264 1.94922C3.42547 2.56458 2.54825 3.44653 1.9386 4.507C1.32895 5.56747 1.0082 6.76933 1.00839 7.99255C1.00859 9.21577 1.32971 10.4175 1.93969 11.4778L1 15.0956L4.70239 14.1559C5.72594 14.7129 6.87303 15.0037 8.0383 15.0017H7.96313C9.35191 15.0107 10.7119 14.6059 11.8697 13.8389C13.0276 13.0719 13.9307 11.9775 14.464 10.6951C14.9973 9.41279 15.1366 8.00067 14.8641 6.63884C14.5916 5.27702 13.9197 4.0272 12.9341 3.04877ZM7.96313 13.7989C6.92058 13.7997 5.89743 13.5171 5.00309 12.9813L4.79636 12.8592L2.59748 13.4324L3.18009 11.2899L3.04853 11.0737C2.29805 9.86514 2.01732 8.42311 2.25961 7.02124C2.5019 5.61937 3.25034 4.35521 4.36294 3.46861C5.47554 2.58201 6.87488 2.13465 8.29546 2.21143C9.71604 2.2882 11.059 2.88375 12.0696 3.8851C12.6114 4.4225 13.0408 5.06235 13.3328 5.76737C13.6248 6.47238 13.7735 7.22846 13.7704 7.99155C13.7679 9.53098 13.1553 11.0066 12.0668 12.0952C10.9782 13.1837 9.50255 13.7964 7.96313 13.7989Z" fill="#536574"/>
</svg>
