<svg width="16" height="16" viewBox="0 0 16 16" fill="none" xmlns="http://www.w3.org/2000/svg">
<path d="M3.59589 11.8996C4.22221 11.4349 4.90453 11.0678 5.64284 10.7985C6.38104 10.5293 7.16675 10.3947 8 10.3947C8.83325 10.3947 9.61897 10.5293 10.3572 10.7985C11.0955 11.0678 11.7778 11.4349 12.4041 11.8996C12.8622 11.396 13.2251 10.8132 13.493 10.151C13.7608 9.48885 13.8947 8.77184 13.8947 8C13.8947 6.36667 13.3206 4.97588 12.1724 3.82763C11.0241 2.67939 9.63333 2.10526 8 2.10526C6.36667 2.10526 4.97588 2.67939 3.82763 3.82763C2.67939 4.97588 2.10526 6.36667 2.10526 8C2.10526 8.77184 2.23918 9.48885 2.50703 10.151C2.77487 10.8132 3.13782 11.396 3.59589 11.8996ZM8.00018 8.55263C7.32745 8.55263 6.76014 8.32175 6.29826 7.86C5.83626 7.39812 5.60526 6.83082 5.60526 6.15808C5.60526 5.48534 5.83614 4.91804 6.29789 4.45616C6.75977 3.99416 7.32708 3.76316 7.99982 3.76316C8.67255 3.76316 9.23986 3.99403 9.70174 4.45579C10.1637 4.91767 10.3947 5.48497 10.3947 6.15771C10.3947 6.83045 10.1639 7.39775 9.70211 7.85963C9.24023 8.32163 8.67292 8.55263 8.00018 8.55263ZM8 15C7.02798 15 6.11614 14.8172 5.26447 14.4516C4.41281 14.086 3.67197 13.5881 3.04197 12.958C2.41185 12.328 1.91399 11.5872 1.54839 10.7355C1.1828 9.88386 1 8.97202 1 8C1 7.02798 1.1828 6.11614 1.54839 5.26447C1.91399 4.41281 2.41185 3.67197 3.04197 3.04197C3.67197 2.41185 4.41281 1.91399 5.26447 1.5484C6.11614 1.1828 7.02798 1 8 1C8.97202 1 9.88386 1.1828 10.7355 1.5484C11.5872 1.91399 12.328 2.41185 12.958 3.04197C13.5881 3.67197 14.086 4.41281 14.4516 5.26447C14.8172 6.11614 15 7.02798 15 8C15 8.97202 14.8172 9.88386 14.4516 10.7355C14.086 11.5872 13.5881 12.328 12.958 12.958C12.328 13.5881 11.5872 14.086 10.7355 14.4516C9.88386 14.8172 8.97202 15 8 15ZM8 13.8947C8.665 13.8947 9.30618 13.7878 9.92353 13.5738C10.5409 13.3598 11.089 13.0606 11.568 12.6762C11.089 12.3058 10.548 12.0172 9.94489 11.8104C9.34167 11.6035 8.69337 11.5 8 11.5C7.30663 11.5 6.65717 11.6022 6.05161 11.8067C5.44604 12.0113 4.90618 12.3011 4.43203 12.6762C4.91097 13.0606 5.45912 13.3598 6.07647 13.5738C6.69382 13.7878 7.335 13.8947 8 13.8947ZM8 7.44737C8.36658 7.44737 8.67311 7.32407 8.91958 7.07747C9.16618 6.831 9.28947 6.52447 9.28947 6.15789C9.28947 5.79132 9.16618 5.48479 8.91958 5.23832C8.67311 4.99172 8.36658 4.86842 8 4.86842C7.63342 4.86842 7.32689 4.99172 7.08042 5.23832C6.83382 5.48479 6.71053 5.79132 6.71053 6.15789C6.71053 6.52447 6.83382 6.831 7.08042 7.07747C7.32689 7.32407 7.63342 7.44737 8 7.44737Z" fill="#536574"/>
</svg>
