<svg width="16" height="16" viewBox="0 0 16 16" fill="none" xmlns="http://www.w3.org/2000/svg">
<path d="M8.00047 1.00006C4.14299 1.00006 1 4.14293 1 8.00007C1 11.8572 4.14299 15.0001 8.00047 15.0001C11.858 15.0001 15.0013 11.8572 15.0013 8.00007C15.0013 4.14293 11.858 1.00006 8.00047 1.00006ZM8.00047 13.8572C4.78591 13.8572 2.14303 11.2144 2.14303 8.00007C2.14303 4.78579 4.78591 2.14292 8.00047 2.14292C11.215 2.14292 13.8583 4.78579 13.8583 8.00007C13.8583 11.2144 11.215 13.8572 8.00047 13.8572Z" fill="#536574"/>
<path d="M10.3748 5.71656L7.34398 8.9305L5.96645 7.5531C5.69095 7.27762 5.23213 7.27762 4.95663 7.5531C4.68112 7.82858 4.68112 8.28769 4.95663 8.56317L6.79333 10.3997C6.88516 10.4915 7.06883 10.5833 7.2525 10.5833C7.43617 10.5833 7.48279 10.5836 7.71168 10.3997L11.3851 6.72663C11.6606 6.45115 11.6606 5.99204 11.3851 5.71656C11.1096 5.44108 10.6503 5.44108 10.3748 5.71656Z" fill="#536574"/>
</svg>
